# xmcd CD database file
#
# Track frame offsets:
#	150
#	12092
#	26004
#	38005
#	50314
#	63084
#	77453
#	90701
#	104551
#	118512
#	132483
#	145113
#	158182
#	173114
#	185813
#	199367
#	213944
#	226855
#	239836
#	252690
#
# Disc length: 3546 seconds
#
# Revision: 1
# Processed by: cddbd v1.5.2PL0 Copyright (c) Steve Scherf et al.
# Submitted via: CDex 1.51
#
DISCID=180dd814
DTITLE=Beiderbecke, Bix - Deep Down South (1924-1930)
DYEAR=2016
DGENRE=Jazz
TTITLE0=Flock O' Blues
TTITLE1=I'm Glad
TTITLE2=Toddlin' BLues
TTITLE3=Davenport Blues
TTITLE4=Three Blind Mice
TTITLE5=Clarinet Marmalade
TTITLE6=Singing' The Blues
TTITLE7=Ostrich Walk
TTITLE8=Riverboat Shuffle
TTITLE9=I'm Coming VIrginia
TTITLE10='Way Down Yonder in New Orleans
TTITLE11=Lonely Melody
TTITLE12=San
TTITLE13=At The Jazz Band Ball
TTITLE14=Jazz Me Blues
TTITLE15=Goose Pimples
TTITLE16=Sorry
TTITLE17=Somebody Stole My Gal
TTITLE18=Margie
TTITLE19=Deep Down South
EXTD=YEAR: 2016
EXTT0=
EXTT1=
EXTT2=
EXTT3=
EXTT4=
EXTT5=
EXTT6=
EXTT7=
EXTT8=
EXTT9=
EXTT10=
EXTT11=
EXTT12=
EXTT13=
EXTT14=
EXTT15=
EXTT16=
EXTT17=
EXTT18=
EXTT19=
PLAYORDER=
